# xmcd
#
# Track frame offsets:
#	150
#	21992
#	38347
#	61762
#	84889
#	102063
#	123439
#	141708
#	159593
#	178588
#	202668
#	219971
#	235137
#	245300
#	267604
#	291523
#	304284
#	328154
#
# Disc length: 4729 seconds
#
# Revision: 0
# Processed by: cddbd v1.5.1PL2 Copyright (c) Steve Scherf et al.
# Submitted via: EasyCDDAExtractor 8.2.1.1
#
DISCID=fd127712
DTITLE=B. B. King - Grand Collection
DYEAR=1900
DGENRE=Blues
TTITLE0=When Love Comes To Town
TTITLE1=Birthday Boogie
TTITLE2=Let The Good Times Roll (with Zucchero)
TTITLE3=Hel The Poor (with Eric Clapton)
TTITLE4=Makin' Love Is Good For You
TTITLE5=Freedom
TTITLE6=Everyday I Have The Blues
TTITLE7=The Thrill Is Gone (with Tracy Chapman)
TTITLE8=Come Rain Or Come Shine (with Eric Clapton)
TTITLE9=Blues For TJ (with L. Carlton)
TTITLE10=I Know
TTITLE11=Better  Not Lock Down
TTITLE12=Don't Keep Me Waitin'
TTITLE13=No One Ever Tells You (with D. Schuur)
TTITLE14=Stormy Monday Blues
TTITLE15=Please, Love Me
TTITLE16=Playin' With My Friend
TTITLE17=Since I Fell For You
EXTD=
EXTT0=
EXTT1=
EXTT2=
EXTT3=
EXTT4=
EXTT5=
EXTT6=
EXTT7=
EXTT8=
EXTT9=
EXTT10=
EXTT11=
EXTT12=
EXTT13=
EXTT14=
EXTT15=
EXTT16=
EXTT17=
PLAYORDER=
